<?xml version="1.0" encoding="utf-8"?>
<svg viewBox="0 0 500 500" xmlns="http://www.w3.org/2000/svg" xmlns:bx="https://boxy-svg.com">
  <ellipse style="stroke-width: 4px; stroke: rgb(24, 24, 24); fill: rgb(24, 104, 72);" cx="75.745" cy="80.967" rx="48.27" ry="45.929" transform="matrix(1, 0, 0, 0.9999999999999999, 5.684341886080802e-14, -7.105427357601002e-15)"/>
  <path d="M 190.75 40.178 L 231.158 123.849 L 150.341 123.849 L 190.75 40.178 Z" style="stroke-width: 4px; stroke: rgb(24, 24, 24); fill: rgb(72, 120, 40);" transform="matrix(1, 0, 0, 0.9999999999999999, 5.684341886080802e-14, -7.105427357601002e-15)" bx:shape="triangle 150.341 40.178 80.817 83.671 0.5 0 1@71581c3a"/>
  <rect x="264.485" y="44.156" width="74.871" height="78.249" style="stroke-width: 4px; stroke: rgb(24, 24, 24); fill: rgb(184, 168, 56);" transform="matrix(1, 0, 0, 0.9999999999999999, 5.684341886080802e-14, -7.105427357601002e-15)"/>
  <path d="M 427.999 33.236 L 473.241 66.722 L 455.96 120.905 L 400.038 120.905 L 382.757 66.722 Z" style="stroke-width: 4px; stroke: rgb(24, 24, 24); fill: rgb(152, 104, 24);" transform="matrix(1, 0, 0, 0.9999999999999999, 5.684341886080802e-14, -7.105427357601002e-15)" bx:shape="n-gon 427.999 81.698 47.57 48.462 5 0 1@081ab3b3">
    <title>pentagon</title>
  </path>
  <path d="M 77.317 159.661 L 123.749 184.839 L 123.749 235.195 L 77.317 260.373 L 30.885 235.195 L 30.885 184.839 Z" style="stroke: rgb(24, 24, 24); stroke-width: 4px; fill: rgb(168, 72, 40);" transform="matrix(1, 0, 0, 0.9999999999999999, 5.684341886080802e-14, -7.105427357601002e-15)" bx:shape="n-gon 77.317 210.017 53.615 50.356 6 0 1@735fef95">
    <title>hexagon</title>
  </path>
  <path d="M 200.949 162.482 L 239.155 181.001 L 248.591 222.613 L 222.152 255.983 L 179.746 255.983 L 153.307 222.613 L 162.743 181.001 Z" style="stroke-width: 4px; stroke: rgb(24, 24, 24); fill: rgb(136, 48, 40);" transform="matrix(1, 0, 0, 0.9999999999999999, 5.684341886080802e-14, -7.105427357601002e-15)" bx:shape="n-gon 200.949 211.668 48.867 49.186 7 0 1@e513416a">
    <title>sectagon</title>
  </path>
  <path d="M 322.345 162.48 L 357.719 176.739 L 372.372 211.162 L 357.719 245.585 L 322.345 259.844 L 286.971 245.585 L 272.318 211.162 L 286.971 176.739 Z" style="stroke-width: 4px; stroke: rgb(24, 24, 24); fill: rgb(72, 56, 88);" transform="matrix(1, 0, 0, 0.9999999999999999, 5.684341886080802e-14, -7.105427357601002e-15)" bx:shape="n-gon 322.345 211.162 50.027 48.682 8 0 1@7a3c6259">
    <title>ocatagon</title>
  </path>
</svg>